<svg  viewBox="0 0 61 61" fill="none" xmlns="http://www.w3.org/2000/svg">
<path d="M30.4477 1.7019C14.5417 1.7019 1.64771 14.5959 1.64771 30.5019C1.64771 46.4079 14.5417 59.3019 30.4477 59.3019C46.3537 59.3019 59.2477 46.4079 59.2477 30.5019C59.2477 14.5959 46.3537 1.7019 30.4477 1.7019ZM41.5237 34.1949C41.5237 34.1949 44.0707 36.7089 44.6977 37.8759C44.7157 37.8999 44.7247 37.9239 44.7307 37.9359C44.9857 38.3649 45.0457 38.6979 44.9197 38.9469C44.7097 39.3609 43.9897 39.5649 43.7437 39.5829H39.2437C38.9317 39.5829 38.2777 39.5019 37.4857 38.9559C36.8767 38.5299 36.2767 37.8309 35.6917 37.1499C34.8187 36.1359 34.0627 35.2599 33.3007 35.2599C33.2039 35.2597 33.1077 35.2749 33.0157 35.3049C32.4397 35.4909 31.7017 36.3129 31.7017 38.5029C31.7017 39.1869 31.1617 39.5799 30.7807 39.5799H28.7197C28.0177 39.5799 24.3607 39.3339 21.1207 35.9169C17.1547 31.7319 13.5847 23.3379 13.5547 23.2599C13.3297 22.7169 13.7947 22.4259 14.3017 22.4259H18.8467C19.4527 22.4259 19.6507 22.7949 19.7887 23.1219C19.9507 23.5029 20.5447 25.0179 21.5197 26.7219C23.1007 29.4999 24.0697 30.6279 24.8467 30.6279C24.9924 30.6262 25.1355 30.5891 25.2637 30.5199C26.2777 29.9559 26.0887 26.3409 26.0437 25.5909C26.0437 25.4499 26.0407 23.9739 25.5217 23.2659C25.1497 22.7529 24.5167 22.5579 24.1327 22.4859C24.2881 22.2714 24.4929 22.0975 24.7297 21.9789C25.4257 21.6309 26.6797 21.5799 27.9247 21.5799H28.6177C29.9677 21.5979 30.3157 21.6849 30.8047 21.8079C31.7947 22.0449 31.8157 22.6839 31.7287 24.8709C31.7017 25.4919 31.6747 26.1939 31.6747 27.0219C31.6747 27.2019 31.6657 27.3939 31.6657 27.5979C31.6357 28.7109 31.5997 29.9739 32.3857 30.4929C32.4882 30.5572 32.6067 30.5915 32.7277 30.5919C33.0007 30.5919 33.8227 30.5919 36.0487 26.7729C36.7352 25.5437 37.3318 24.2663 37.8337 22.9509C37.8787 22.8729 38.0107 22.6329 38.1667 22.5399C38.2818 22.4812 38.4095 22.4514 38.5387 22.4529H43.8817C44.4637 22.4529 44.8627 22.5399 44.9377 22.7649C45.0697 23.1219 44.9137 24.2109 42.4747 27.5139L41.3857 28.9509C39.1747 31.8489 39.1747 31.9959 41.5237 34.1949Z" fill="currentColor"/>
</svg>
