<svg width="45" height="38" viewBox="0 0 45 38" fill="none" xmlns="http://www.w3.org/2000/svg">
<path d="M8.63254 0.652588C3.86629 0.652588 3.95311e-08 4.38322 8.83048e-08 8.98609C1.37049e-07 13.5862 3.86629 17.3196 8.63254 17.3196C17.2621 17.3196 11.5101 33.4283 3.47303e-07 33.4283L3.88512e-07 37.3172C20.5423 37.32 28.5916 0.652588 8.63254 0.652588V0.652588ZM33.4999 0.652588C28.7367 0.652588 24.8704 4.38322 24.8704 8.98609C24.8704 13.5862 28.7367 17.3196 33.4999 17.3196C42.1325 17.3196 36.3804 33.4283 24.8704 33.4283L24.8704 37.3172C45.4097 37.32 53.459 0.652588 33.4999 0.652588V0.652588Z" fill="#EAEAEA"/>
</svg>
