<svg viewBox="0 0 60 60" fill="none" xmlns="http://www.w3.org/2000/svg">
<g clip-path="url(#clip0_7241_14)">
<path d="M26.0039 35.7773L35.8242 30.0117L26.0039 24.2461V35.7773Z" fill="currentColor"/>
<path d="M30 0C13.4297 0 0 13.4297 0 30C0 46.5703 13.4297 60 30 60C46.5703 60 60 46.5703 60 30C60 13.4297 46.5703 0 30 0ZM45 35.3672C45 40.5352 39.832 40.5352 39.832 40.5352H20.168C15 40.5352 15 35.3672 15 35.3672V24.6445C15 19.4766 20.168 19.4766 20.168 19.4766H39.832C45 19.4766 45 24.6445 45 24.6445V35.3672Z" fill="currentColor"/>
</g>
<defs>
<clipPath id="clip0_7241_14">
<rect width="60" height="60" fill="transparent"/>
</clipPath>
</defs>
</svg>
