<svg width="18" height="19" viewBox="0 0 18 19" fill="none" xmlns="http://www.w3.org/2000/svg">
<path d="M3.33982 0.637451C2.4551 0.640899 1.60761 0.993878 0.982019 1.61947C0.356427 2.24506 0.00344753 3.09256 0 3.97727V15.2976C0.00344753 16.1823 0.356427 17.0298 0.982019 17.6554C1.60761 18.281 2.4551 18.634 3.33982 18.6375H14.6602C15.5449 18.634 16.3924 18.281 17.018 17.6554C17.6436 17.0298 17.9966 16.1823 18 15.2976V3.97727C17.9966 3.09256 17.6436 2.24506 17.018 1.61947C16.3924 0.993878 15.5449 0.640899 14.6602 0.637451H3.33982ZM3.33982 2.27381H14.6602C15.6093 2.27381 16.3636 3.02818 16.3636 3.97727V15.2976C16.3636 16.2467 15.6093 17.0011 14.6602 17.0011H3.33982C3.11572 17.0025 2.89358 16.9594 2.68627 16.8743C2.47896 16.7892 2.29061 16.6638 2.13215 16.5053C1.97368 16.3468 1.84826 16.1585 1.76315 15.9512C1.67805 15.7439 1.63495 15.5217 1.63636 15.2976V3.97727C1.63636 3.02818 2.39073 2.27381 3.33982 2.27381ZM8.77009 6.55291C8.16873 6.54718 7.65736 6.55291 7.37018 6.69363C7.17791 6.78691 7.03145 6.99718 7.12064 7.007C7.23273 7.02336 7.48473 7.07736 7.61973 7.25981C7.79155 7.493 7.78582 8.02072 7.78582 8.02072C7.78582 8.02072 7.88155 9.47136 7.55182 9.65382C7.32518 9.77818 7.01509 9.52536 6.34418 8.37172C6.00218 7.77772 5.74364 7.12236 5.74364 7.12236C5.74364 7.12236 5.69455 7.00045 5.60618 6.93663C5.49736 6.85727 5.34682 6.83109 5.34682 6.83109L3.74564 6.84091C3.74564 6.84091 3.50591 6.85072 3.42 6.953C3.33982 7.04872 3.41345 7.23691 3.41345 7.23691C3.41345 7.23691 4.66609 10.1676 6.08482 11.6445C7.38573 13.0002 8.86255 12.9102 8.86255 12.9102H9.53345C9.53345 12.9102 9.73473 12.8881 9.837 12.7793C9.93355 12.677 9.93027 12.4847 9.93027 12.4847C9.93027 12.4847 9.91718 11.5872 10.3328 11.453C10.7452 11.3245 11.2688 12.3219 11.8285 12.7056C12.2539 12.9961 12.5763 12.9323 12.5763 12.9323L14.0727 12.9102C14.0727 12.9102 14.8525 12.8619 14.4818 12.245C14.4532 12.1975 14.2675 11.7917 13.3732 10.9605C12.4331 10.0915 12.5583 10.2323 13.689 8.72682C14.3763 7.80963 14.6512 7.25 14.5645 7.007C14.4826 6.78036 13.977 6.84091 13.977 6.84091L12.2924 6.85072C12.2924 6.85072 12.168 6.83436 12.0755 6.88918C12.012 6.93639 11.9613 6.99886 11.9283 7.07081C11.9283 7.07081 11.6599 7.78018 11.3048 8.38481C10.557 9.65627 10.2535 9.72663 10.1324 9.64727C9.84764 9.46154 9.918 8.90518 9.918 8.51245C9.918 7.27536 10.1062 6.764 9.55391 6.63063C9.37145 6.58563 9.23727 6.557 8.77091 6.55291H8.77009Z" fill="#8A8A8A"/>
</svg>
