<svg width="32" height="32" viewBox="0 0 32 32" fill="none" xmlns="http://www.w3.org/2000/svg">
<g clip-path="url(#clip0_7241_36)">
<path d="M16 32C24.8366 32 32 24.8366 32 16C32 7.16344 24.8366 0 16 0C7.16344 0 0 7.16344 0 16C0 24.8366 7.16344 32 16 32Z" fill="currentColor"/>
<path d="M22.8034 11.6999C20.41 7.99988 15.5235 6.89987 11.7339 9.19989C8.04409 11.4999 6.84739 16.4999 9.24079 20.2L9.44024 20.5L8.64244 23.5L11.6342 22.7L11.9334 22.9C13.2298 23.6 14.626 24 16.0221 24C17.518 24 19.0139 23.6 20.3103 22.8C24.0001 20.4 25.0971 15.4999 22.8034 11.6999ZM20.7092 19.4C20.3103 20 19.8117 20.4 19.1136 20.5C18.7147 20.5 18.2161 20.7 16.2216 19.9C14.5262 19.1 13.1301 17.8 12.1328 16.2999C11.5345 15.5999 11.2353 14.6999 11.1356 13.7999C11.1356 12.9999 11.4347 12.2999 11.9334 11.7999C12.1328 11.5999 12.3323 11.4999 12.5317 11.4999H13.0304C13.2298 11.4999 13.4293 11.4999 13.529 11.8999C13.7284 12.3999 14.2271 13.5999 14.2271 13.6999C14.3268 13.7999 14.3268 13.9999 14.2271 14.0999C14.3268 14.2999 14.2271 14.4999 14.1273 14.5999C14.0276 14.6999 13.9279 14.8999 13.8282 14.9999C13.6287 15.0999 13.529 15.2999 13.6287 15.4999C14.0276 16.0999 14.5262 16.6999 15.0249 17.1999C15.6232 17.7 16.2216 18.1 16.9196 18.4C17.1191 18.5 17.3185 18.5 17.4183 18.3C17.518 18.1 18.0166 17.6 18.2161 17.3999C18.4155 17.1999 18.5152 17.1999 18.7147 17.2999L20.3103 18.1C20.5097 18.2 20.7092 18.3 20.8089 18.4C20.9086 18.7 20.9086 19.1 20.7092 19.4Z" fill="white"/>
</g>
<defs>
<clipPath id="clip0_7241_36">
<rect width="32" height="32" fill="white"/>
</clipPath>
</defs>
</svg>
