<svg width="18" height="19" viewBox="0 0 18 19" fill="none" xmlns="http://www.w3.org/2000/svg">
<path d="M9 6.93745C8.28392 6.93745 7.59716 7.22191 7.09081 7.72826C6.58446 8.23461 6.3 8.92137 6.3 9.63745C6.3 10.3535 6.58446 11.0403 7.09081 11.5466C7.59716 12.053 8.28392 12.3375 9 12.3375C9.71608 12.3375 10.4028 12.053 10.9092 11.5466C11.4155 11.0403 11.7 10.3535 11.7 9.63745C11.7 8.92137 11.4155 8.23461 10.9092 7.72826C10.4028 7.22191 9.71608 6.93745 9 6.93745ZM9 5.13745C10.1935 5.13745 11.3381 5.61156 12.182 6.45547C13.0259 7.29938 13.5 8.44398 13.5 9.63745C13.5 10.8309 13.0259 11.9755 12.182 12.8194C11.3381 13.6633 10.1935 14.1375 9 14.1375C7.80653 14.1375 6.66193 13.6633 5.81802 12.8194C4.97411 11.9755 4.5 10.8309 4.5 9.63745C4.5 8.44398 4.97411 7.29938 5.81802 6.45547C6.66193 5.61156 7.80653 5.13745 9 5.13745ZM14.85 4.91245C14.85 5.21082 14.7315 5.49697 14.5205 5.70795C14.3095 5.91892 14.0234 6.03745 13.725 6.03745C13.4266 6.03745 13.1405 5.91892 12.9295 5.70795C12.7185 5.49697 12.6 5.21082 12.6 4.91245C12.6 4.61408 12.7185 4.32793 12.9295 4.11696C13.1405 3.90598 13.4266 3.78745 13.725 3.78745C14.0234 3.78745 14.3095 3.90598 14.5205 4.11696C14.7315 4.32793 14.85 4.61408 14.85 4.91245ZM9 2.43745C6.7734 2.43745 6.4098 2.44375 5.3739 2.48965C4.6683 2.52295 4.1949 2.61745 3.7557 2.78845C3.3651 2.93965 3.0834 3.12055 2.7837 3.42115C2.50201 3.69331 2.28542 4.02558 2.1501 4.39315C1.9791 4.83415 1.8846 5.30665 1.8522 6.01135C1.8054 7.00495 1.8 7.35235 1.8 9.63745C1.8 11.8641 1.8063 12.2276 1.8522 13.2635C1.8855 13.9683 1.98 14.4426 2.1501 14.8809C2.3031 15.2724 2.4831 15.5541 2.7819 15.8529C3.0852 16.1553 3.3669 16.3362 3.7539 16.4855C4.1985 16.6574 4.6719 16.7528 5.3739 16.7852C6.3675 16.8321 6.7149 16.8375 9 16.8375C11.2266 16.8375 11.5902 16.8312 12.6261 16.7852C13.3299 16.7519 13.8042 16.6575 14.2434 16.4874C14.6331 16.3353 14.9166 16.1544 15.2154 15.8556C15.5187 15.5523 15.6996 15.2706 15.849 14.8836C16.02 14.4399 16.1154 13.9655 16.1478 13.2635C16.1946 12.2699 16.2 11.9226 16.2 9.63745C16.2 7.41085 16.1937 7.04725 16.1478 6.01135C16.1145 5.30755 16.02 4.83235 15.849 4.39315C15.7134 4.02595 15.4972 3.69382 15.2163 3.42115C14.9443 3.13931 14.612 2.9227 14.2443 2.78755C13.8033 2.61655 13.3299 2.52205 12.6261 2.48965C11.6325 2.44285 11.2851 2.43745 9 2.43745ZM9 0.637451C11.4453 0.637451 11.7504 0.646451 12.7098 0.691451C13.6683 0.736451 14.3208 0.886751 14.895 1.10995C15.489 1.33855 15.9894 1.64815 16.4898 2.14765C16.9474 2.59756 17.3016 3.14178 17.5275 3.74245C17.7498 4.31575 17.901 4.96915 17.946 5.92765C17.9883 6.88705 18 7.19215 18 9.63745C18 12.0828 17.991 12.3879 17.946 13.3473C17.901 14.3058 17.7498 14.9583 17.5275 15.5325C17.3022 16.1334 16.948 16.6778 16.4898 17.1273C16.0398 17.5847 15.4956 17.9388 14.895 18.165C14.3217 18.3873 13.6683 18.5385 12.7098 18.5835C11.7504 18.6258 11.4453 18.6375 9 18.6375C6.5547 18.6375 6.2496 18.6285 5.2902 18.5835C4.3317 18.5385 3.6792 18.3873 3.105 18.165C2.50409 17.9395 1.95977 17.5853 1.5102 17.1273C1.05247 16.6774 0.698338 16.1332 0.4725 15.5325C0.2493 14.9592 0.0989999 14.3058 0.0539999 13.3473C0.0117 12.3879 0 12.0828 0 9.63745C0 7.19215 0.00899995 6.88705 0.0539999 5.92765C0.0989999 4.96825 0.2493 4.31665 0.4725 3.74245C0.697713 3.14141 1.05192 2.59704 1.5102 2.14765C1.9599 1.68976 2.50419 1.33561 3.105 1.10995C3.6792 0.886751 4.3308 0.736451 5.2902 0.691451C6.2496 0.649151 6.5547 0.637451 9 0.637451Z" fill="#8A8A8A"/>
</svg>
