<svg xmlns="http://www.w3.org/2000/svg" xmlns:xlink="http://www.w3.org/1999/xlink"><defs>
<clipPath id="clip0_7241_8">
<rect width="60" height="60" fill="currentColor"/>
</clipPath>

<clipPath id="clip0_7241_36">
<rect width="32" height="32" fill="white"/>
</clipPath>

<clipPath id="clip0_7241_14">
<rect width="60" height="60" fill="transparent"/>
</clipPath>
</defs><symbol id="icon-burger" viewBox="0 0 10 10">
<rect width="10" height="2" fill="currentColor"/>
<rect y="4" width="10" height="2" fill="currentColor"/>
<rect y="8" width="10" height="2" fill="currentColor"/>
</symbol><symbol id="icon-close" viewBox="0 0 20 20"><path d="M.293 18.291a1 1 0 101.414 1.414L10 11.413l8.292 8.292a1 1 0 101.414-1.414l-8.292-8.292 8.292-8.292A1 1 0 1018.291.293L9.999 8.585 1.707.293A1 1 0 10.293 1.707L8.585 10 .293 18.291z"/></symbol><symbol id="icon-insta-social" viewBox="0 0 60 60">
<g clip-path="url(#clip0_7241_8)">
<path d="M30 35.2734C32.9062 35.2734 35.2851 32.9063 35.2851 29.9883C35.2851 28.8398 34.9101 27.7734 34.289 26.9063C33.3281 25.582 31.7695 24.7031 30.0117 24.7031C28.2539 24.7031 26.6953 25.5703 25.7344 26.9063C25.1133 27.7734 24.7383 28.8398 24.7383 29.9883C24.7265 32.9063 27.0937 35.2734 30 35.2734Z" fill="currentColor"/>
<path d="M41.5312 23.543V19.1133V18.457H40.875L36.4453 18.4688L36.4687 23.5547L41.5312 23.543Z" fill="currentColor"/>
<path d="M38.2031 30C38.2031 34.5234 34.5234 38.2031 30 38.2031C25.4766 38.2031 21.7969 34.5234 21.7969 30C21.7969 28.9102 22.0195 27.8672 22.4063 26.918H17.9297V39.1992C17.9297 40.7812 19.2188 42.0703 20.8008 42.0703H39.1992C40.7812 42.0703 42.0703 40.7812 42.0703 39.1992V26.918H37.5938C37.9922 27.8672 38.2031 28.9102 38.2031 30Z" fill="currentColor"/>
<path d="M30 0C13.4297 0 0 13.4297 0 30C0 46.5703 13.4297 60 30 60C46.5703 60 60 46.5703 60 30C60 13.4297 46.5703 0 30 0ZM45 26.918V39.1992C45 42.3984 42.3984 45 39.1992 45H20.8008C17.6016 45 15 42.3984 15 39.1992V26.918V20.7891C15 17.5898 17.6016 14.9883 20.8008 14.9883H39.1992C42.3984 14.9883 45 17.5898 45 20.7891V26.918Z" fill="currentColor"/>
</g>

</symbol><symbol id="icon-instagram" viewBox="0 0 18 19">
<path d="M9 6.93745C8.28392 6.93745 7.59716 7.22191 7.09081 7.72826C6.58446 8.23461 6.3 8.92137 6.3 9.63745C6.3 10.3535 6.58446 11.0403 7.09081 11.5466C7.59716 12.053 8.28392 12.3375 9 12.3375C9.71608 12.3375 10.4028 12.053 10.9092 11.5466C11.4155 11.0403 11.7 10.3535 11.7 9.63745C11.7 8.92137 11.4155 8.23461 10.9092 7.72826C10.4028 7.22191 9.71608 6.93745 9 6.93745ZM9 5.13745C10.1935 5.13745 11.3381 5.61156 12.182 6.45547C13.0259 7.29938 13.5 8.44398 13.5 9.63745C13.5 10.8309 13.0259 11.9755 12.182 12.8194C11.3381 13.6633 10.1935 14.1375 9 14.1375C7.80653 14.1375 6.66193 13.6633 5.81802 12.8194C4.97411 11.9755 4.5 10.8309 4.5 9.63745C4.5 8.44398 4.97411 7.29938 5.81802 6.45547C6.66193 5.61156 7.80653 5.13745 9 5.13745ZM14.85 4.91245C14.85 5.21082 14.7315 5.49697 14.5205 5.70795C14.3095 5.91892 14.0234 6.03745 13.725 6.03745C13.4266 6.03745 13.1405 5.91892 12.9295 5.70795C12.7185 5.49697 12.6 5.21082 12.6 4.91245C12.6 4.61408 12.7185 4.32793 12.9295 4.11696C13.1405 3.90598 13.4266 3.78745 13.725 3.78745C14.0234 3.78745 14.3095 3.90598 14.5205 4.11696C14.7315 4.32793 14.85 4.61408 14.85 4.91245ZM9 2.43745C6.7734 2.43745 6.4098 2.44375 5.3739 2.48965C4.6683 2.52295 4.1949 2.61745 3.7557 2.78845C3.3651 2.93965 3.0834 3.12055 2.7837 3.42115C2.50201 3.69331 2.28542 4.02558 2.1501 4.39315C1.9791 4.83415 1.8846 5.30665 1.8522 6.01135C1.8054 7.00495 1.8 7.35235 1.8 9.63745C1.8 11.8641 1.8063 12.2276 1.8522 13.2635C1.8855 13.9683 1.98 14.4426 2.1501 14.8809C2.3031 15.2724 2.4831 15.5541 2.7819 15.8529C3.0852 16.1553 3.3669 16.3362 3.7539 16.4855C4.1985 16.6574 4.6719 16.7528 5.3739 16.7852C6.3675 16.8321 6.7149 16.8375 9 16.8375C11.2266 16.8375 11.5902 16.8312 12.6261 16.7852C13.3299 16.7519 13.8042 16.6575 14.2434 16.4874C14.6331 16.3353 14.9166 16.1544 15.2154 15.8556C15.5187 15.5523 15.6996 15.2706 15.849 14.8836C16.02 14.4399 16.1154 13.9655 16.1478 13.2635C16.1946 12.2699 16.2 11.9226 16.2 9.63745C16.2 7.41085 16.1937 7.04725 16.1478 6.01135C16.1145 5.30755 16.02 4.83235 15.849 4.39315C15.7134 4.02595 15.4972 3.69382 15.2163 3.42115C14.9443 3.13931 14.612 2.9227 14.2443 2.78755C13.8033 2.61655 13.3299 2.52205 12.6261 2.48965C11.6325 2.44285 11.2851 2.43745 9 2.43745ZM9 0.637451C11.4453 0.637451 11.7504 0.646451 12.7098 0.691451C13.6683 0.736451 14.3208 0.886751 14.895 1.10995C15.489 1.33855 15.9894 1.64815 16.4898 2.14765C16.9474 2.59756 17.3016 3.14178 17.5275 3.74245C17.7498 4.31575 17.901 4.96915 17.946 5.92765C17.9883 6.88705 18 7.19215 18 9.63745C18 12.0828 17.991 12.3879 17.946 13.3473C17.901 14.3058 17.7498 14.9583 17.5275 15.5325C17.3022 16.1334 16.948 16.6778 16.4898 17.1273C16.0398 17.5847 15.4956 17.9388 14.895 18.165C14.3217 18.3873 13.6683 18.5385 12.7098 18.5835C11.7504 18.6258 11.4453 18.6375 9 18.6375C6.5547 18.6375 6.2496 18.6285 5.2902 18.5835C4.3317 18.5385 3.6792 18.3873 3.105 18.165C2.50409 17.9395 1.95977 17.5853 1.5102 17.1273C1.05247 16.6774 0.698338 16.1332 0.4725 15.5325C0.2493 14.9592 0.0989999 14.3058 0.0539999 13.3473C0.0117 12.3879 0 12.0828 0 9.63745C0 7.19215 0.00899995 6.88705 0.0539999 5.92765C0.0989999 4.96825 0.2493 4.31665 0.4725 3.74245C0.697713 3.14141 1.05192 2.59704 1.5102 2.14765C1.9599 1.68976 2.50419 1.33561 3.105 1.10995C3.6792 0.886751 4.3308 0.736451 5.2902 0.691451C6.2496 0.649151 6.5547 0.637451 9 0.637451Z" fill="#8A8A8A"/>
</symbol><symbol id="icon-loupe" viewBox="0 0 29 29">
<path d="M28 28L21.6252 21.6138L28 28ZM25.1579 13.0789C25.1579 16.2825 23.8853 19.3548 21.6201 21.6201C19.3548 23.8853 16.2825 25.1579 13.0789 25.1579C9.87541 25.1579 6.80308 23.8853 4.53784 21.6201C2.2726 19.3548 1 16.2825 1 13.0789C1 9.87541 2.2726 6.80308 4.53784 4.53784C6.80308 2.2726 9.87541 1 13.0789 1C16.2825 1 19.3548 2.2726 21.6201 4.53784C23.8853 6.80308 25.1579 9.87541 25.1579 13.0789V13.0789Z" stroke="white" stroke-width="2" stroke-linecap="round"/>
<path d="M13 9V13M13 13V17M13 13H17M13 13H9" stroke="white" stroke-width="2" stroke-linecap="square"/>
</symbol><symbol id="icon-mail" viewBox="0 0 22 16">
<path fill-rule="evenodd" clip-rule="evenodd" d="M22 16V2L11 11L0 2V16H22ZM11 8L21 0H1L11 8Z" fill="#FFC700"/>
</symbol><symbol id="icon-phone-map" viewBox="0 0 19 19">
<path d="M18.215 14.0622L16.3179 12.1652C15.9745 11.822 15.5445 11.5785 15.0736 11.4605C14.6027 11.3426 14.1087 11.3547 13.6441 11.4955C13.1796 11.6363 12.7619 11.9006 12.4358 12.2601C12.1096 12.6196 11.8872 13.0609 11.7921 13.5369C8.66376 12.952 5.62111 9.92189 5.43172 7.21358C5.96356 7.11575 6.45302 6.85835 6.83502 6.4756C7.33798 5.97259 7.62053 5.29039 7.62053 4.57908C7.62053 3.86776 7.33798 3.18557 6.83502 2.68256L4.93845 0.785492C4.43542 0.282546 3.75322 0 3.04188 0C2.33054 0 1.64833 0.282546 1.14531 0.785492C-4.54494 6.4756 12.5247 23.5448 18.215 17.8547C18.7176 17.3517 19 16.6696 19 15.9585C19 15.2473 18.7176 14.5653 18.215 14.0622Z" fill="#FFC700"/>
</symbol><symbol id="icon-phone" viewBox="0 0 16 16">
<path fill-rule="evenodd" clip-rule="evenodd" d="M1.88541 0.510194C2.06038 0.335474 2.27048 0.199938 2.50179 0.112565C2.7331 0.0251932 2.98033 -0.0120195 3.22711 0.00339337C3.47389 0.0188063 3.71457 0.0864929 3.93321 0.201968C4.15185 0.317442 4.34346 0.478068 4.49533 0.673201L6.29027 2.97931C6.61926 3.40233 6.73526 3.95335 6.60526 4.47338L6.05828 6.66348C6.03 6.77691 6.03153 6.89573 6.06272 7.0084C6.0939 7.12107 6.15369 7.22376 6.23628 7.30651L8.6932 9.76362C8.77603 9.84638 8.87889 9.90627 8.99174 9.93746C9.1046 9.96866 9.2236 9.97009 9.33718 9.94163L11.5261 9.3946C11.7827 9.33044 12.0506 9.32545 12.3094 9.38003C12.5682 9.4346 12.8112 9.5473 13.0201 9.70962L15.326 11.5037C16.155 12.1487 16.231 13.3738 15.489 14.1148L14.455 15.1489C13.715 15.8889 12.6091 16.2139 11.5781 15.8509C8.93937 14.9224 6.54354 13.4116 4.56833 11.4307C2.58768 9.45562 1.07705 7.05995 0.148466 4.42137C-0.213522 3.39133 0.111467 2.28428 0.851444 1.54424L1.88541 0.510194Z" fill="#008139"/>
</symbol><symbol id="icon-pin" viewBox="0 0 14 22">
<path d="M7 0C3.1332 0 0 3.06679 0 6.86554C0 13.4339 7 22 7 22C7 22 14 13.4325 14 6.86554C14 3.06817 10.8668 0 7 0ZM7 10.6643C5.99748 10.6643 5.03602 10.2729 4.32714 9.57624C3.61825 8.87958 3.22 7.9347 3.22 6.94947C3.22 5.96424 3.61825 5.01936 4.32714 4.32269C5.03602 3.62603 5.99748 3.23465 7 3.23465C8.00252 3.23465 8.96398 3.62603 9.67286 4.32269C10.3818 5.01936 10.78 5.96424 10.78 6.94947C10.78 7.9347 10.3818 8.87958 9.67286 9.57624C8.96398 10.2729 8.00252 10.6643 7 10.6643Z" fill="#FFC700"/>
</symbol><symbol id="icon-quote" viewBox="0 0 45 38">
<path d="M8.63254 0.652588C3.86629 0.652588 3.95311e-08 4.38322 8.83048e-08 8.98609C1.37049e-07 13.5862 3.86629 17.3196 8.63254 17.3196C17.2621 17.3196 11.5101 33.4283 3.47303e-07 33.4283L3.88512e-07 37.3172C20.5423 37.32 28.5916 0.652588 8.63254 0.652588V0.652588ZM33.4999 0.652588C28.7367 0.652588 24.8704 4.38322 24.8704 8.98609C24.8704 13.5862 28.7367 17.3196 33.4999 17.3196C42.1325 17.3196 36.3804 33.4283 24.8704 33.4283L24.8704 37.3172C45.4097 37.32 53.459 0.652588 33.4999 0.652588V0.652588Z" fill="#EAEAEA"/>
</symbol><symbol id="icon-round" viewBox="0 0 24 24">

<g id="SVGRepo_bgCarrier" stroke-width="0"/>

<g id="SVGRepo_tracerCarrier" stroke-linecap="round" stroke-linejoin="round" stroke="#CCCCCC" stroke-width="0.384"/>

<g id="SVGRepo_iconCarrier"> <title>round_line</title> <g id="&#x9875;&#x9762;-1" stroke="none" stroke-width="1" fill="none" fill-rule="evenodd"> <g id="Shape" transform="translate(-144.000000, 0.000000)"> <g id="round_line" transform="translate(144.000000, 0.000000)"> <path d="M24,0 L24,24 L0,24 L0,0 L24,0 Z M12.5934901,23.257841 L12.5819402,23.2595131 L12.5108777,23.2950439 L12.4918791,23.2987469 L12.4918791,23.2987469 L12.4767152,23.2950439 L12.4056548,23.2595131 C12.3958229,23.2563662 12.3870493,23.2590235 12.3821421,23.2649074 L12.3780323,23.275831 L12.360941,23.7031097 L12.3658947,23.7234994 L12.3769048,23.7357139 L12.4804777,23.8096931 L12.4953491,23.8136134 L12.4953491,23.8136134 L12.5071152,23.8096931 L12.6106902,23.7357139 L12.6232938,23.7196733 L12.6232938,23.7196733 L12.6266527,23.7031097 L12.609561,23.275831 C12.6075724,23.2657013 12.6010112,23.2592993 12.5934901,23.257841 L12.5934901,23.257841 Z M12.8583906,23.1452862 L12.8445485,23.1473072 L12.6598443,23.2396597 L12.6498822,23.2499052 L12.6498822,23.2499052 L12.6471943,23.2611114 L12.6650943,23.6906389 L12.6699349,23.7034178 L12.6699349,23.7034178 L12.678386,23.7104931 L12.8793402,23.8032389 C12.8914285,23.8068999 12.9022333,23.8029875 12.9078286,23.7952264 L12.9118235,23.7811639 L12.8776777,23.1665331 C12.8752882,23.1545897 12.8674102,23.1470016 12.8583906,23.1452862 L12.8583906,23.1452862 Z M12.1430473,23.1473072 C12.1332178,23.1423925 12.1221763,23.1452606 12.1156365,23.1525954 L12.1099173,23.1665331 L12.0757714,23.7811639 C12.0751323,23.7926639 12.0828099,23.8018602 12.0926481,23.8045676 L12.108256,23.8032389 L12.3092106,23.7104931 L12.3186497,23.7024347 L12.3186497,23.7024347 L12.3225043,23.6906389 L12.340401,23.2611114 L12.337245,23.2485176 L12.337245,23.2485176 L12.3277531,23.2396597 L12.1430473,23.1473072 Z" id="MingCute" fill-rule="nonzero"> </path> <path d="M12,4 C7.58172,4 4,7.58172 4,12 C4,16.4183 7.58172,20 12,20 C16.4183,20 20,16.4183 20,12 C20,7.58172 16.4183,4 12,4 Z M2,12 C2,6.47715 6.47715,2 12,2 C17.5228,2 22,6.47715 22,12 C22,17.5228 17.5228,22 12,22 C6.47715,22 2,17.5228 2,12 Z" id="&#x5F62;&#x72B6;" fill="#008139"> </path> </g> </g> </g> </g>

</symbol><symbol id="icon-vk-social" viewBox="0 0 61 61">
<path d="M30.4477 1.7019C14.5417 1.7019 1.64771 14.5959 1.64771 30.5019C1.64771 46.4079 14.5417 59.3019 30.4477 59.3019C46.3537 59.3019 59.2477 46.4079 59.2477 30.5019C59.2477 14.5959 46.3537 1.7019 30.4477 1.7019ZM41.5237 34.1949C41.5237 34.1949 44.0707 36.7089 44.6977 37.8759C44.7157 37.8999 44.7247 37.9239 44.7307 37.9359C44.9857 38.3649 45.0457 38.6979 44.9197 38.9469C44.7097 39.3609 43.9897 39.5649 43.7437 39.5829H39.2437C38.9317 39.5829 38.2777 39.5019 37.4857 38.9559C36.8767 38.5299 36.2767 37.8309 35.6917 37.1499C34.8187 36.1359 34.0627 35.2599 33.3007 35.2599C33.2039 35.2597 33.1077 35.2749 33.0157 35.3049C32.4397 35.4909 31.7017 36.3129 31.7017 38.5029C31.7017 39.1869 31.1617 39.5799 30.7807 39.5799H28.7197C28.0177 39.5799 24.3607 39.3339 21.1207 35.9169C17.1547 31.7319 13.5847 23.3379 13.5547 23.2599C13.3297 22.7169 13.7947 22.4259 14.3017 22.4259H18.8467C19.4527 22.4259 19.6507 22.7949 19.7887 23.1219C19.9507 23.5029 20.5447 25.0179 21.5197 26.7219C23.1007 29.4999 24.0697 30.6279 24.8467 30.6279C24.9924 30.6262 25.1355 30.5891 25.2637 30.5199C26.2777 29.9559 26.0887 26.3409 26.0437 25.5909C26.0437 25.4499 26.0407 23.9739 25.5217 23.2659C25.1497 22.7529 24.5167 22.5579 24.1327 22.4859C24.2881 22.2714 24.4929 22.0975 24.7297 21.9789C25.4257 21.6309 26.6797 21.5799 27.9247 21.5799H28.6177C29.9677 21.5979 30.3157 21.6849 30.8047 21.8079C31.7947 22.0449 31.8157 22.6839 31.7287 24.8709C31.7017 25.4919 31.6747 26.1939 31.6747 27.0219C31.6747 27.2019 31.6657 27.3939 31.6657 27.5979C31.6357 28.7109 31.5997 29.9739 32.3857 30.4929C32.4882 30.5572 32.6067 30.5915 32.7277 30.5919C33.0007 30.5919 33.8227 30.5919 36.0487 26.7729C36.7352 25.5437 37.3318 24.2663 37.8337 22.9509C37.8787 22.8729 38.0107 22.6329 38.1667 22.5399C38.2818 22.4812 38.4095 22.4514 38.5387 22.4529H43.8817C44.4637 22.4529 44.8627 22.5399 44.9377 22.7649C45.0697 23.1219 44.9137 24.2109 42.4747 27.5139L41.3857 28.9509C39.1747 31.8489 39.1747 31.9959 41.5237 34.1949Z" fill="currentColor"/>
</symbol><symbol id="icon-vk" viewBox="0 0 18 19">
<path d="M3.33982 0.637451C2.4551 0.640899 1.60761 0.993878 0.982019 1.61947C0.356427 2.24506 0.00344753 3.09256 0 3.97727V15.2976C0.00344753 16.1823 0.356427 17.0298 0.982019 17.6554C1.60761 18.281 2.4551 18.634 3.33982 18.6375H14.6602C15.5449 18.634 16.3924 18.281 17.018 17.6554C17.6436 17.0298 17.9966 16.1823 18 15.2976V3.97727C17.9966 3.09256 17.6436 2.24506 17.018 1.61947C16.3924 0.993878 15.5449 0.640899 14.6602 0.637451H3.33982ZM3.33982 2.27381H14.6602C15.6093 2.27381 16.3636 3.02818 16.3636 3.97727V15.2976C16.3636 16.2467 15.6093 17.0011 14.6602 17.0011H3.33982C3.11572 17.0025 2.89358 16.9594 2.68627 16.8743C2.47896 16.7892 2.29061 16.6638 2.13215 16.5053C1.97368 16.3468 1.84826 16.1585 1.76315 15.9512C1.67805 15.7439 1.63495 15.5217 1.63636 15.2976V3.97727C1.63636 3.02818 2.39073 2.27381 3.33982 2.27381ZM8.77009 6.55291C8.16873 6.54718 7.65736 6.55291 7.37018 6.69363C7.17791 6.78691 7.03145 6.99718 7.12064 7.007C7.23273 7.02336 7.48473 7.07736 7.61973 7.25981C7.79155 7.493 7.78582 8.02072 7.78582 8.02072C7.78582 8.02072 7.88155 9.47136 7.55182 9.65382C7.32518 9.77818 7.01509 9.52536 6.34418 8.37172C6.00218 7.77772 5.74364 7.12236 5.74364 7.12236C5.74364 7.12236 5.69455 7.00045 5.60618 6.93663C5.49736 6.85727 5.34682 6.83109 5.34682 6.83109L3.74564 6.84091C3.74564 6.84091 3.50591 6.85072 3.42 6.953C3.33982 7.04872 3.41345 7.23691 3.41345 7.23691C3.41345 7.23691 4.66609 10.1676 6.08482 11.6445C7.38573 13.0002 8.86255 12.9102 8.86255 12.9102H9.53345C9.53345 12.9102 9.73473 12.8881 9.837 12.7793C9.93355 12.677 9.93027 12.4847 9.93027 12.4847C9.93027 12.4847 9.91718 11.5872 10.3328 11.453C10.7452 11.3245 11.2688 12.3219 11.8285 12.7056C12.2539 12.9961 12.5763 12.9323 12.5763 12.9323L14.0727 12.9102C14.0727 12.9102 14.8525 12.8619 14.4818 12.245C14.4532 12.1975 14.2675 11.7917 13.3732 10.9605C12.4331 10.0915 12.5583 10.2323 13.689 8.72682C14.3763 7.80963 14.6512 7.25 14.5645 7.007C14.4826 6.78036 13.977 6.84091 13.977 6.84091L12.2924 6.85072C12.2924 6.85072 12.168 6.83436 12.0755 6.88918C12.012 6.93639 11.9613 6.99886 11.9283 7.07081C11.9283 7.07081 11.6599 7.78018 11.3048 8.38481C10.557 9.65627 10.2535 9.72663 10.1324 9.64727C9.84764 9.46154 9.918 8.90518 9.918 8.51245C9.918 7.27536 10.1062 6.764 9.55391 6.63063C9.37145 6.58563 9.23727 6.557 8.77091 6.55291H8.77009Z" fill="#8A8A8A"/>
</symbol><symbol id="icon-watch" viewBox="0 0 20 20">
<path d="M9.99 0C4.47 0 0 4.48 0 10C0 15.52 4.47 20 9.99 20C15.52 20 20 15.52 20 10C20 4.48 15.52 0 9.99 0ZM13.29 14.71L9 10.41V5H11V9.59L14.71 13.3L13.29 14.71Z" fill="#FFC700"/>
</symbol><symbol id="icon-whatsapp" viewBox="0 0 32 32">
<g clip-path="url(#clip0_7241_36)">
<path d="M16 32C24.8366 32 32 24.8366 32 16C32 7.16344 24.8366 0 16 0C7.16344 0 0 7.16344 0 16C0 24.8366 7.16344 32 16 32Z" fill="currentColor"/>
<path d="M22.8034 11.6999C20.41 7.99988 15.5235 6.89987 11.7339 9.19989C8.04409 11.4999 6.84739 16.4999 9.24079 20.2L9.44024 20.5L8.64244 23.5L11.6342 22.7L11.9334 22.9C13.2298 23.6 14.626 24 16.0221 24C17.518 24 19.0139 23.6 20.3103 22.8C24.0001 20.4 25.0971 15.4999 22.8034 11.6999ZM20.7092 19.4C20.3103 20 19.8117 20.4 19.1136 20.5C18.7147 20.5 18.2161 20.7 16.2216 19.9C14.5262 19.1 13.1301 17.8 12.1328 16.2999C11.5345 15.5999 11.2353 14.6999 11.1356 13.7999C11.1356 12.9999 11.4347 12.2999 11.9334 11.7999C12.1328 11.5999 12.3323 11.4999 12.5317 11.4999H13.0304C13.2298 11.4999 13.4293 11.4999 13.529 11.8999C13.7284 12.3999 14.2271 13.5999 14.2271 13.6999C14.3268 13.7999 14.3268 13.9999 14.2271 14.0999C14.3268 14.2999 14.2271 14.4999 14.1273 14.5999C14.0276 14.6999 13.9279 14.8999 13.8282 14.9999C13.6287 15.0999 13.529 15.2999 13.6287 15.4999C14.0276 16.0999 14.5262 16.6999 15.0249 17.1999C15.6232 17.7 16.2216 18.1 16.9196 18.4C17.1191 18.5 17.3185 18.5 17.4183 18.3C17.518 18.1 18.0166 17.6 18.2161 17.3999C18.4155 17.1999 18.5152 17.1999 18.7147 17.2999L20.3103 18.1C20.5097 18.2 20.7092 18.3 20.8089 18.4C20.9086 18.7 20.9086 19.1 20.7092 19.4Z" fill="white"/>
</g>

</symbol><symbol id="icon-youtube" viewBox="0 0 60 60">
<g clip-path="url(#clip0_7241_14)">
<path d="M26.0039 35.7773L35.8242 30.0117L26.0039 24.2461V35.7773Z" fill="currentColor"/>
<path d="M30 0C13.4297 0 0 13.4297 0 30C0 46.5703 13.4297 60 30 60C46.5703 60 60 46.5703 60 30C60 13.4297 46.5703 0 30 0ZM45 35.3672C45 40.5352 39.832 40.5352 39.832 40.5352H20.168C15 40.5352 15 35.3672 15 35.3672V24.6445C15 19.4766 20.168 19.4766 20.168 19.4766H39.832C45 19.4766 45 24.6445 45 24.6445V35.3672Z" fill="currentColor"/>
</g>

</symbol></svg>